<svg width="413" height="163" viewBox="0 0 413 163" fill="none" xmlns="http://www.w3.org/2000/svg">
<g clip-path="url(#clip0_8925_53542)">
<path d="M154.882 161.727V156.301H154.673C153.283 158.249 151.857 159.744 150.397 160.788C149.007 161.831 147.026 162.353 144.453 162.353C143.201 162.353 141.915 162.144 140.594 161.727C139.342 161.379 138.125 160.684 136.944 159.64C135.762 158.667 134.788 157.275 134.023 155.467C133.328 153.588 132.98 151.189 132.98 148.267C132.98 145.276 133.223 142.667 133.711 140.442C134.198 138.146 135.101 136.234 136.422 134.703C137.674 133.242 139.377 132.164 141.532 131.468C143.688 130.703 146.434 130.321 149.772 130.321C150.119 130.321 150.502 130.321 150.919 130.321C151.336 130.321 151.719 130.355 152.066 130.425C152.413 130.495 152.831 130.529 153.318 130.529C153.805 130.529 154.326 130.564 154.882 130.634V125.104C154.882 123.295 154.499 121.799 153.735 120.617C152.97 119.435 151.579 118.843 149.563 118.843C148.173 118.843 146.886 119.295 145.704 120.2C144.591 121.104 143.861 122.425 143.514 124.164H133.189C133.468 119.435 135.066 115.609 137.987 112.687C139.377 111.296 141.045 110.218 142.993 109.453C144.94 108.618 147.13 108.2 149.563 108.2C151.788 108.2 153.873 108.548 155.821 109.244C157.768 109.939 159.471 110.983 160.931 112.374C162.321 113.765 163.434 115.504 164.268 117.591C165.103 119.678 165.52 122.112 165.52 124.895V161.727H154.882ZM154.882 138.981C153.7 138.772 152.726 138.668 151.962 138.668C149.667 138.668 147.686 139.224 146.017 140.337C144.418 141.381 143.618 143.329 143.618 146.18C143.618 148.197 144.105 149.832 145.078 151.084C146.052 152.336 147.407 152.962 149.146 152.962C150.953 152.962 152.345 152.371 153.318 151.189C154.361 150.006 154.882 148.337 154.882 146.18V138.981Z" fill="#FF4D36"/>
<path d="M172.084 153.693V100.792H182.722V106.427C184.877 104.479 189.918 100.792 189.918 100.792H191.9C191.9 100.792 195.028 27.6499 195.028 29.7367C195.028 31.8234 195.028 100.792 195.028 100.792H196.801V111.435C195.758 111.018 194.68 110.809 193.568 110.809C192.456 110.809 191.238 111.018 189.918 111.435C188.667 111.783 187.519 112.409 186.476 113.313C185.364 114.218 184.459 115.4 183.765 116.861C183.069 118.322 182.722 120.13 182.722 122.287V153.693H172.084Z" fill="#FF4D36"/>
<path d="M203.372 161.936V109.036H214.01V161.936H203.372ZM203.372 98.2886V87.6459H214.01V98.2886H203.372ZM221.784 126.773C221.784 124.617 221.924 122.634 222.201 120.826C222.48 119.018 223.001 117.417 223.766 116.026C225.017 113.731 229.445 110.079 234.66 109.557C237.024 108.166 235.551 67.8213 237.267 67.8213C238.984 67.8213 237.58 108.166 239.875 109.557C245.137 110.079 250.256 113.731 251.507 116.026C252.273 117.417 252.794 119.018 253.072 120.826C253.35 122.634 253.489 124.617 253.489 126.773V144.198C253.489 146.355 253.35 148.337 253.072 150.146C252.794 151.954 252.273 153.554 251.507 154.945C250.256 157.241 248.449 159.084 246.084 160.475C243.79 161.866 240.974 162.562 237.636 162.562C234.299 162.562 231.449 161.866 229.084 160.475C226.79 159.084 225.017 157.241 223.766 154.945C223.001 153.554 222.48 151.954 222.201 150.146C221.924 148.337 221.784 146.355 221.784 144.198V126.773ZM232.422 145.868C232.422 147.885 232.874 149.415 233.778 150.459C234.752 151.432 236.038 151.919 237.636 151.919C239.236 151.919 240.488 151.432 241.391 150.459C242.365 149.415 242.851 147.885 242.851 145.868V125.104C242.851 123.087 242.365 121.591 241.391 120.617C240.488 119.574 239.236 119.052 237.636 119.052C236.038 119.052 234.752 119.574 233.778 120.617C232.874 121.591 232.422 123.087 232.422 125.104V145.868Z" fill="#FF4D36"/>
<path d="M328.836 113.485L308.863 120.189L311.152 127.015C311.683 128.598 312.521 129.673 313.665 130.244C314.876 130.791 316.238 130.81 317.754 130.302C319.667 129.66 320.73 128.679 320.948 127.359C321.231 126.017 321.251 124.762 321.006 123.597L331.092 120.212C332.573 124.631 332.417 128.645 330.62 132.256C329.767 134.083 328.55 135.703 326.969 137.114C325.389 138.524 323.446 139.617 321.138 140.392C317.974 141.454 315.05 141.701 312.367 141.135C309.749 140.546 307.482 139.362 305.566 137.584C304.399 136.509 303.396 135.158 302.557 133.532C301.719 131.906 300.956 130.071 300.27 128.026L294.73 111.506C294.045 109.462 293.547 107.538 293.235 105.735C292.924 103.932 292.909 102.249 293.192 100.687C293.649 98.1123 294.743 95.8005 296.476 93.7514C298.276 91.6801 301.928 88.1671 308.186 88.1671C310.494 87.3925 308.161 47.3024 310.272 47.4745C312.449 47.624 311.097 87.7463 312.879 88.6888C318.094 89.2105 322.688 95.1523 324.191 99.6364L328.836 113.485ZM306.209 112.276L316.096 108.957L314.172 103.219C313.531 101.307 312.595 100.043 311.362 99.4305C310.174 98.7287 308.821 98.6324 307.305 99.1415C305.789 99.6502 304.735 100.554 304.144 101.853C303.597 103.064 303.644 104.626 304.285 106.538L306.209 112.276Z" fill="#FF4D36"/>
<path d="M340.101 108.868V88.6264L343.647 86.018C343.647 86.018 343.647 51.8222 344.69 52.1701C345.732 52.518 346.254 84.9745 346.254 84.9745L350.739 82.8877V108.868H357.309V117.216H350.739V146.535C350.739 147.787 350.843 148.761 351.051 149.457C351.33 150.153 351.747 150.674 352.303 151.022C352.859 151.369 353.52 151.578 354.285 151.648C355.119 151.718 356.127 151.752 357.309 151.752V161.769H352.929C350.496 161.769 348.444 161.386 346.775 160.621C345.177 159.856 343.89 158.882 342.917 157.7C341.944 156.517 341.213 155.195 340.726 153.735C340.309 152.204 340.101 150.743 340.101 149.352V117.216H334.782V108.868H340.101ZM361.387 108.868V88.6264L366.07 85.4962C366.07 85.4962 366.046 81.0947 366.032 74.8879C366.001 60.0489 366.029 58.4307 366.591 58.4307C367.148 58.4307 367.436 59.349 367.559 74.0816C367.612 80.4313 367.634 84.9745 367.634 84.9745L372.025 82.8877V108.868H378.595V117.216H372.025V146.535C372.025 147.787 372.129 148.761 372.338 149.457C372.616 150.153 373.033 150.674 373.589 151.022C374.145 151.369 374.806 151.578 375.571 151.648C376.405 151.718 377.414 151.752 378.595 151.752V161.769H374.215C371.782 161.769 369.73 161.386 368.062 160.621C366.463 159.856 365.176 158.882 364.203 157.7C363.23 156.517 362.5 155.195 362.013 153.735C361.595 152.204 361.387 150.743 361.387 149.352V117.216H356.068V108.868H361.387ZM413.439 139.336H392.372V146.535C392.372 148.205 392.825 149.491 393.728 150.396C394.702 151.3 395.988 151.752 397.587 151.752C399.604 151.752 400.924 151.161 401.55 149.978C402.246 148.796 402.663 147.613 402.802 146.431H413.439C413.439 151.092 412.015 154.848 409.163 157.7C407.773 159.16 406.105 160.308 404.157 161.143C402.211 161.978 400.021 162.395 397.587 162.395C394.25 162.395 391.399 161.699 389.035 160.308C386.74 158.917 384.968 157.074 383.716 154.778C382.952 153.387 382.43 151.787 382.152 149.978C381.874 148.17 381.734 146.188 381.734 144.031V126.606C381.734 124.45 381.874 122.467 382.152 120.659C382.43 118.851 382.952 117.25 383.716 115.859C384.968 113.564 386.74 111.72 389.035 110.329C391.399 108.938 394.25 108.242 397.587 108.242C400.021 108.242 402.211 108.66 404.157 109.494C406.174 110.329 407.878 111.477 409.268 112.938C412.049 116.068 413.439 119.998 413.439 124.728V139.336ZM392.372 130.989H402.802V124.937C402.802 122.92 402.316 121.424 401.341 120.45C400.438 119.407 399.187 118.885 397.587 118.885C395.988 118.885 394.702 119.407 393.728 120.45C392.825 121.424 392.372 122.92 392.372 124.937V130.989Z" fill="#FF4D36"/>
<path d="M260.731 163.083V110.183H271.369V115.296H271.578C272.691 113.626 274.011 112.27 275.541 111.226C277.14 110.113 279.157 109.557 281.59 109.557C282.911 109.557 284.232 109.8 285.553 110.287C286.875 110.705 288.056 111.435 289.099 112.478C290.142 113.522 290.976 114.878 291.602 116.548C292.228 118.148 292.541 120.13 292.541 122.495V163.083H281.903V126.46C281.903 124.512 281.451 122.982 280.547 121.869C279.643 120.756 278.357 120.2 276.688 120.2C274.672 120.2 273.281 120.826 272.517 122.078C271.752 123.33 271.369 125.138 271.369 127.503V163.083H260.731Z" fill="#FF4D36"/>
<path fill-rule="evenodd" clip-rule="evenodd" d="M31.5471 122.078H31.1205V162.71H46.7486V131.438L65.1497 112.96L78.4033 125.209V162.771H94.0313V125.208H93.6119L74.8022 103.268L106.398 71.5406V162.771H125.152V53.2135H124.65L108.088 37.5625L62.0516 88.3954L18.8793 38.0391L0.498542 53.2135H0V162.771H18.7537V70.0838L51.352 100.209L31.5471 122.078Z" fill="#FF4D36"/>
<path fill-rule="evenodd" clip-rule="evenodd" d="M324.466 23.9644C321.996 23.6723 321.417 20.3464 323.644 19.2379L337.491 12.3452C339.323 11.4335 339.346 8.82884 337.531 7.88419L323.906 0.791572C323.22 0.434595 322.408 0.414572 321.705 0.737324L282.7 18.6562C282.282 18.8484 281.819 18.9215 281.361 18.8675L197.335 8.93161C196.479 8.83043 195.631 9.17645 195.091 9.84756L186.932 19.9808C185.712 21.496 186.611 23.7629 188.538 24.0299L243.408 31.6312C245.886 31.9745 246.383 35.3405 244.109 36.385L218.616 48.0966C216.694 48.9795 216.666 51.7005 218.569 52.6233L236.715 61.4224C237.413 61.7608 238.228 61.7566 238.923 61.411L286.007 37.9733C286.458 37.7487 286.966 37.6656 287.466 37.7348L371.006 49.3081C371.954 49.4393 372.893 49.0189 373.427 48.2249L382.641 34.5144C383.685 32.9606 382.717 30.8524 380.858 30.6325L324.466 23.9644Z" fill="#FF4D36"/>
</g>
<defs>
<clipPath id="clip0_8925_53542">
<rect width="413" height="162.771" fill="white"/>
</clipPath>
</defs>
</svg>
