<svg aria-hidden="true" style="position: absolute; width: 0; height: 0; overflow: hidden;" version="1.1" xmlns="http://www.w3.org/2000/svg" xmlns:xlink="http://www.w3.org/1999/xlink">
<defs>
<symbol id="icon-facebook" viewBox="0 0 32 32">
<path d="M6.097 0.053c-1.473 0.214-2.887 0.912-3.933 1.941-0.987 0.97-1.644 2.132-1.967 3.478-0.2 0.835-0.21 1.42-0.19 11.018 0.017 8.437 0.027 9.301 0.106 9.688 0.596 2.913 2.635 5.016 5.52 5.691 0.461 0.108 0.507 0.109 10.145 0.124 10.692 0.018 10.25 0.030 11.3-0.305 1.117-0.356 2.013-0.906 2.869-1.76 1.036-1.035 1.652-2.166 1.963-3.601 0.085-0.393 0.091-1.059 0.091-10.326 0-9.387-0.005-9.93-0.094-10.344-0.14-0.651-0.314-1.144-0.63-1.777-0.354-0.709-0.797-1.303-1.43-1.915-1.032-0.997-2.271-1.625-3.684-1.869-0.567-0.098-0.87-0.101-10.171-0.095-5.273 0.003-9.725 0.026-9.894 0.051zM20.581 8.243l-0.014 1.66-1.236 0.026c-1.281 0.027-1.343 0.037-1.553 0.265-0.176 0.191-0.223 0.475-0.224 1.343l-0 0.811h1.516c0.834 0 1.527 0.017 1.54 0.039s-0.007 0.351-0.045 0.733c-0.038 0.382-0.105 1.088-0.148 1.57s-0.093 1.020-0.11 1.197l-0.031 0.322h-2.824l-0.013 4.799-0.013 4.799-3.836 0.027-0.026-9.599-1.932-0.028 0.014-1.916 0.014-1.916 1.867-0.028 0.026-1.221c0.023-1.095 0.040-1.273 0.158-1.722 0.423-1.607 1.546-2.569 3.225-2.766 0.186-0.022 1.085-0.043 1.999-0.046l1.662-0.007-0.014 1.66z"></path>
</symbol>
<symbol id="icon-Linkdn" viewBox="0 0 32 32">
<path d="M0.693 0.693l-0.693 0.693v29.228l1.386 1.386h29.228l1.386-1.386v-29.228l-1.386-1.386h-29.228l-0.693 0.693zM8.58 5.615c2.44 1.262 1.406 4.78-1.406 4.78-1.061 0-2.084-0.71-2.465-1.708-0.833-2.188 1.697-4.196 3.87-3.072zM23.954 12.407c1.073 0.488 2.098 1.53 2.627 2.674 0.392 0.847 0.43 1.349 0.489 6.378l0.063 5.459-4.814-0.115-0.102-4.858-0.102-4.858-0.666-0.594c-0.767-0.685-1.916-0.798-2.905-0.287-1.044 0.54-1.109 0.854-1.219 5.909l-0.102 4.688-4.79 0.115v-14.701l4.79 0.115 0.063 0.868 0.063 0.868 0.498-0.592c0.274-0.326 0.888-0.785 1.364-1.021 1.142-0.565 3.55-0.589 4.743-0.047zM9.682 19.567v7.236l-4.79 0.115v-14.701l4.79 0.115v7.236z"></path>
</symbol>
<symbol id="icon-arrow-left" viewBox="0 0 32 32">
<path d="M1 16l15 15v-9h16v-12h-16v-9z"></path>
<symbol id="icon-menu" viewBox="0 0 32 32">
<path d="M2 6h28v6h-28zM2 14h28v6h-28zM2 22h28v6h-28z"></path>
</symbol>
</symbol>
</defs>
</svg>
